<mxfile host="app.diagrams.net" modified="2023-08-02T13:25:06.035Z" agent="Mozilla/5.0 (Windows NT 10.0; Win64; x64) AppleWebKit/537.36 (KHTML, like Gecko) Chrome/115.0.0.0 Safari/537.36" version="21.6.6" etag="c9dFI1nmexQJM5ft--Fn" type="github">
  <diagram name="Page-1" id="wLtpWg2QO9ETpV2zG94c">
    <mxGraphModel>
      <root>
        <mxCell id="0" />
        <mxCell id="1" parent="0" />
      </root>
    </mxGraphModel>
  </diagram>
</mxfile>
